<?xml version="1.0" encoding="UTF-8"?>
<svg width="141px" height="141px" viewBox="0 0 141 141" version="1.1" xmlns="http://www.w3.org/2000/svg" xmlns:xlink="http://www.w3.org/1999/xlink">
    <!-- Generator: Sketch 44.1 (41455) - http://www.bohemiancoding.com/sketch -->
    <title>Shape</title>
    <desc>Created with Sketch.</desc>
    <defs></defs>
    <g id="Page-1" stroke="none" stroke-width="1" fill="none" fill-rule="evenodd">
        <g id="BCH" fill-rule="nonzero" fill="#000000">
            <path d="M70.666,0.5 C64.899,0.49 59.037,1.2 53.191,2.691 L53.191,2.688 C15.781,12.239 -6.799,50.275 2.76,87.645 C12.32,125.015 50.397,147.57 87.809,138.02 C125.221,128.472 147.799,90.436 138.241,53.066 C130.174,21.536 101.807,0.552 70.666,0.5 L70.666,0.5 Z M68.637,23.857 L72.102,37.402 C78.432,36.197 83.375,36.2 88.189,38.156 C94.413,40.682 95.855,47.464 96.149,49.094 C96.44,50.724 96.526,53.988 95.628,56.334 C94.732,58.684 91.804,61.553 91.804,61.553 C91.804,61.553 96.083,61.374 99.487,62.793 C102.884,64.213 105.966,67.457 107.265,73.029 C108.568,78.598 108.839,84.39 104.701,89.188 C100.662,93.867 95.588,95.887 93.203,96.837 L93.024,96.907 C91.888,97.362 89.916,98.04 87.787,98.717 L91.256,112.282 L82.897,114.417 L79.482,101.071 L73.115,102.696 L76.529,116.042 L68.17,118.177 L64.756,104.829 L48.309,109.026 L47.463,98.557 L52.463,97.282 C54.143,96.851 54.805,96.518 55.338,95.677 C55.871,94.833 55.768,93.778 55.558,92.956 L46.721,58.403 C46.167,56.238 45.841,55.698 44.561,54.84 C43.279,53.981 40.898,54.431 39.578,54.771 L34.746,56.002 L32.527,47.33 L48.975,43.133 L45.548,29.75 L53.908,27.617 L57.331,41.002 L63.698,39.377 L60.274,25.992 L68.637,23.857 L68.637,23.857 Z M72.303,47.904 C69.338,47.892 67.273,48.351 64.973,48.902 C62.346,49.532 59.748,50.445 59.748,50.445 L63.869,66.561 C63.869,66.561 67.807,65.68 70.824,64.785 C73.842,63.889 76.906,62.363 78.918,60.477 C80.933,58.59 81.742,56.221 80.887,53.197 C80.027,50.173 77.34,48.117 73.633,47.939 C73.1899668,47.9178543 72.7465321,47.906185 72.303,47.904 L72.303,47.904 Z M81.229,71.906 C79.2907522,71.9206186 77.3575798,72.1063396 75.452,72.461 C71.239,73.245 65.996,74.873 65.996,74.873 L70.578,92.783 C70.578,92.783 76.157,91.487 79.797,90.265 C83.438,89.045 87.026,87.132 88.672,85.589 C90.315,84.047 92.201,81.818 91.153,77.722 C90.105,73.624 86.932,72.606 85.17,72.224 C84.289,72.033 82.912,71.896 81.229,71.906 L81.229,71.906 Z" id="Shape"></path>
        </g>
    </g>
</svg>